<svg xmlns="http://www.w3.org/2000/svg" xmlns:xlink="http://www.w3.org/1999/xlink" width="170" zoomAndPan="magnify" viewBox="0 0 127.5 127.499994" height="170" preserveAspectRatio="xMidYMid meet" version="1.0"><defs><clipPath id="313530e14e"><path d="M 110 61 L 124 61 L 124 127 L 110 127 Z M 110 61 " clip-rule="nonzero"/></clipPath><clipPath id="2686e6ecfe"><path d="M 118 8 L 127 8 L 127 61 L 118 61 Z M 118 8 " clip-rule="nonzero"/></clipPath></defs><path fill="#000000" d="M 55.402344 69.125 C 55.402344 61.460938 49.167969 55.230469 41.507812 55.230469 C 33.847656 55.230469 27.613281 61.460938 27.613281 69.125 C 27.613281 76.785156 33.847656 83.015625 41.507812 83.015625 C 49.167969 83.015625 55.402344 76.785156 55.402344 69.125 Z M 29.640625 69.125 C 29.640625 62.578125 34.964844 57.253906 41.507812 57.253906 C 48.054688 57.253906 53.378906 62.578125 53.378906 69.125 C 53.378906 75.667969 48.054688 80.992188 41.507812 80.992188 C 34.964844 80.992188 29.640625 75.667969 29.640625 69.125 Z M 29.640625 69.125 " fill-opacity="1" fill-rule="nonzero"/><path fill="#000000" d="M 45.050781 78.105469 L 45.054688 78.105469 C 45.21875 78.132812 45.378906 78.144531 45.542969 78.144531 C 46.039062 78.144531 46.523438 78.023438 46.964844 77.785156 C 50.273438 76.015625 52.003906 73.019531 51.972656 69.113281 C 51.957031 67.617188 50.878906 66.367188 49.441406 66.144531 C 49.269531 66.113281 49.101562 66.097656 48.90625 66.097656 C 47.234375 66.113281 45.886719 67.488281 45.898438 69.164062 C 45.917969 70.777344 45.382812 71.753906 44.109375 72.429688 C 43.394531 72.808594 42.871094 73.445312 42.632812 74.21875 C 42.398438 75 42.480469 75.824219 42.855469 76.527344 C 43.292969 77.375 44.09375 77.949219 45.050781 78.105469 Z M 45.050781 78.105469 " fill-opacity="1" fill-rule="nonzero"/><path fill="#000000" d="M 59.488281 91.609375 L 59.488281 17.566406 C 59.488281 17.007812 59.035156 16.554688 58.476562 16.554688 L 12.324219 16.554688 C 12.300781 16.554688 12.28125 16.566406 12.257812 16.566406 C 12.167969 16.574219 12.082031 16.589844 11.996094 16.621094 C 11.960938 16.632812 11.925781 16.644531 11.890625 16.660156 C 11.800781 16.703125 11.71875 16.757812 11.644531 16.824219 C 11.632812 16.839844 11.617188 16.84375 11.605469 16.855469 C 11.601562 16.859375 11.597656 16.863281 11.597656 16.863281 L 0.285156 28.644531 C 0.203125 28.726562 0.144531 28.820312 0.0976562 28.921875 C 0.0859375 28.953125 0.078125 28.980469 0.0703125 29.007812 C 0.0390625 29.097656 0.0195312 29.1875 0.0117188 29.285156 C 0.0117188 29.304688 0 29.324219 0 29.34375 L 0 106.257812 C 0 106.816406 0.453125 107.269531 1.011719 107.269531 L 58.476562 107.269531 C 59.035156 107.269531 59.488281 106.816406 59.488281 106.257812 L 59.488281 104.210938 L 59.867188 104.8125 C 60.554688 105.90625 61.714844 106.511719 62.867188 106.511719 C 63.457031 106.511719 64.046875 106.355469 64.570312 106.023438 C 65.519531 105.429688 66.085938 104.375 66.085938 103.203125 C 66.085938 102.519531 65.894531 101.851562 65.527344 101.269531 Z M 30.507812 80.695312 C 29.539062 79.773438 28.683594 78.726562 27.96875 77.582031 C 26.980469 76.003906 26.289062 74.308594 25.910156 72.539062 C 25.316406 69.832031 25.4375 67.011719 26.265625 64.382812 C 27.289062 61.078125 29.304688 58.257812 32.097656 56.226562 L 32.175781 56.171875 C 32.457031 55.980469 32.746094 55.777344 33.046875 55.589844 C 40.507812 50.925781 50.371094 53.199219 55.039062 60.664062 C 56.628906 63.203125 57.464844 66.125 57.464844 69.113281 C 57.464844 73.875 55.378906 78.34375 51.734375 81.371094 C 51.183594 81.835938 50.59375 82.265625 49.96875 82.652344 C 49.308594 83.0625 48.65625 83.414062 48.027344 83.691406 C 42.1875 86.3125 35.148438 85.105469 30.507812 80.695312 Z M 51.039062 84.371094 C 51.410156 84.140625 51.773438 83.894531 52.125 83.636719 L 56.179688 90.125 L 53.949219 91.519531 L 49.894531 85.03125 C 50.269531 84.828125 50.652344 84.609375 51.039062 84.371094 Z M 57.464844 88.363281 L 53.6875 82.316406 C 55.242188 80.886719 56.515625 79.214844 57.464844 77.375 Z M 11.421875 19.96875 L 11.820312 28.894531 L 3.277344 28.449219 Z M 2.023438 105.246094 L 2.023438 30.410156 L 12.828125 30.972656 C 12.847656 30.972656 12.863281 30.972656 12.882812 30.972656 C 13.148438 30.972656 13.40625 30.867188 13.59375 30.679688 C 13.796875 30.476562 13.90625 30.199219 13.890625 29.914062 L 13.382812 18.578125 L 57.464844 18.578125 L 57.464844 60.847656 C 57.246094 60.417969 57.011719 60 56.753906 59.589844 C 51.496094 51.183594 40.378906 48.617188 31.980469 53.871094 C 31.714844 54.035156 31.457031 54.214844 31.203125 54.390625 L 10.109375 54.390625 C 9.550781 54.390625 9.097656 54.84375 9.097656 55.402344 C 9.097656 55.960938 9.550781 56.414062 10.109375 56.414062 L 28.773438 56.414062 C 26.898438 58.285156 25.484375 60.546875 24.582031 63.070312 L 10.109375 63.070312 C 9.550781 63.070312 9.097656 63.523438 9.097656 64.082031 C 9.097656 64.640625 9.550781 65.097656 10.109375 65.097656 L 23.980469 65.097656 C 23.476562 67.269531 23.382812 69.527344 23.710938 71.742188 L 10.109375 71.742188 C 9.550781 71.742188 9.097656 72.199219 9.097656 72.757812 C 9.097656 73.316406 9.550781 73.769531 10.109375 73.769531 L 24.140625 73.769531 C 24.589844 75.472656 25.289062 77.117188 26.25 78.65625 C 26.632812 79.269531 27.054688 79.855469 27.507812 80.417969 L 10.109375 80.417969 C 9.550781 80.417969 9.097656 80.871094 9.097656 81.429688 C 9.097656 81.988281 9.550781 82.441406 10.109375 82.441406 L 29.4375 82.441406 C 32.816406 85.503906 37.109375 87.125 41.484375 87.125 C 43.683594 87.125 45.898438 86.691406 48.023438 85.859375 L 57.46875 100.964844 L 57.46875 105.246094 Z M 2.023438 105.246094 " fill-opacity="1" fill-rule="nonzero"/><path fill="#000000" d="M 34.445312 28.523438 L 53.632812 28.523438 C 54.191406 28.523438 54.644531 28.070312 54.644531 27.511719 C 54.644531 26.953125 54.191406 26.5 53.632812 26.5 L 34.445312 26.5 C 33.886719 26.5 33.433594 26.953125 33.433594 27.511719 C 33.433594 28.070312 33.886719 28.523438 34.445312 28.523438 Z M 34.445312 28.523438 " fill-opacity="1" fill-rule="nonzero"/><path fill="#000000" d="M 10.109375 39.070312 L 50.59375 39.070312 C 51.152344 39.070312 51.605469 38.617188 51.605469 38.058594 C 51.605469 37.5 51.152344 37.042969 50.59375 37.042969 L 10.109375 37.042969 C 9.550781 37.042969 9.097656 37.5 9.097656 38.058594 C 9.097656 38.617188 9.550781 39.070312 10.109375 39.070312 Z M 10.109375 39.070312 " fill-opacity="1" fill-rule="nonzero"/><path fill="#000000" d="M 10.109375 47.742188 L 50.59375 47.742188 C 51.152344 47.742188 51.605469 47.289062 51.605469 46.730469 C 51.605469 46.171875 51.152344 45.71875 50.59375 45.71875 L 10.109375 45.71875 C 9.550781 45.71875 9.097656 46.171875 9.097656 46.730469 C 9.097656 47.289062 9.550781 47.742188 10.109375 47.742188 Z M 10.109375 47.742188 " fill-opacity="1" fill-rule="nonzero"/><path fill="#000000" d="M 99.460938 66.644531 L 74.617188 66.644531 C 71.429688 66.644531 68.839844 69.234375 68.839844 72.421875 L 68.839844 120.972656 C 68.839844 124.164062 71.433594 126.761719 74.617188 126.761719 L 99.460938 126.761719 C 102.644531 126.761719 105.238281 124.164062 105.238281 120.972656 L 105.238281 72.421875 C 105.238281 69.234375 102.644531 66.644531 99.460938 66.644531 Z M 103.214844 120.972656 C 103.214844 123.046875 101.53125 124.738281 99.460938 124.738281 L 74.617188 124.738281 C 72.546875 124.738281 70.863281 123.046875 70.863281 120.972656 L 70.863281 72.421875 C 70.863281 70.351562 72.546875 68.667969 74.617188 68.667969 L 99.460938 68.667969 C 101.53125 68.667969 103.214844 70.351562 103.214844 72.421875 Z M 103.214844 120.972656 " fill-opacity="1" fill-rule="nonzero"/><path fill="#000000" d="M 99.167969 72.898438 L 74.910156 72.898438 C 74.351562 72.898438 73.898438 73.351562 73.898438 73.910156 L 73.898438 81.40625 C 73.898438 81.964844 74.351562 82.417969 74.910156 82.417969 L 99.167969 82.417969 C 99.726562 82.417969 100.179688 81.964844 100.179688 81.40625 L 100.179688 73.910156 C 100.179688 73.351562 99.726562 72.898438 99.167969 72.898438 Z M 98.15625 80.394531 L 75.921875 80.394531 L 75.921875 74.921875 L 98.15625 74.921875 Z M 98.15625 80.394531 " fill-opacity="1" fill-rule="nonzero"/><path fill="#000000" d="M 87.035156 86.558594 C 84.992188 86.558594 83.332031 88.21875 83.332031 90.261719 C 83.332031 92.304688 84.992188 93.964844 87.035156 93.964844 C 89.082031 93.964844 90.746094 92.304688 90.746094 90.261719 C 90.746094 88.21875 89.082031 86.558594 87.035156 86.558594 Z M 87.035156 91.941406 C 86.109375 91.941406 85.355469 91.1875 85.355469 90.261719 C 85.355469 89.332031 86.109375 88.582031 87.035156 88.582031 C 87.964844 88.582031 88.722656 89.335938 88.722656 90.261719 C 88.722656 91.1875 87.964844 91.941406 87.035156 91.941406 Z M 87.035156 91.941406 " fill-opacity="1" fill-rule="nonzero"/><path fill="#000000" d="M 87.035156 95.898438 C 84.992188 95.898438 83.332031 97.558594 83.332031 99.601562 C 83.332031 101.644531 84.992188 103.304688 87.035156 103.304688 C 89.082031 103.304688 90.746094 101.644531 90.746094 99.601562 C 90.746094 97.558594 89.082031 95.898438 87.035156 95.898438 Z M 87.035156 101.28125 C 86.109375 101.28125 85.355469 100.527344 85.355469 99.601562 C 85.355469 98.675781 86.109375 97.921875 87.035156 97.921875 C 87.964844 97.921875 88.722656 98.675781 88.722656 99.601562 C 88.722656 100.527344 87.964844 101.28125 87.035156 101.28125 Z M 87.035156 101.28125 " fill-opacity="1" fill-rule="nonzero"/><path fill="#000000" d="M 87.035156 105.238281 C 84.992188 105.238281 83.332031 106.902344 83.332031 108.949219 C 83.332031 110.992188 84.992188 112.65625 87.035156 112.65625 C 89.082031 112.65625 90.746094 110.992188 90.746094 108.949219 C 90.746094 106.902344 89.082031 105.238281 87.035156 105.238281 Z M 87.035156 110.632812 C 86.109375 110.632812 85.355469 109.878906 85.355469 108.953125 C 85.355469 108.019531 86.109375 107.261719 87.035156 107.261719 C 87.964844 107.261719 88.722656 108.019531 88.722656 108.953125 C 88.722656 109.878906 87.964844 110.632812 87.035156 110.632812 Z M 87.035156 110.632812 " fill-opacity="1" fill-rule="nonzero"/><path fill="#000000" d="M 87.035156 114.589844 C 84.992188 114.589844 83.332031 116.25 83.332031 118.292969 C 83.332031 120.332031 84.992188 121.996094 87.035156 121.996094 C 89.082031 121.996094 90.746094 120.332031 90.746094 118.292969 C 90.746094 116.25 89.082031 114.589844 87.035156 114.589844 Z M 87.035156 119.972656 C 86.109375 119.972656 85.355469 119.21875 85.355469 118.292969 C 85.355469 117.367188 86.109375 116.613281 87.035156 116.613281 C 87.964844 116.613281 88.722656 117.367188 88.722656 118.292969 C 88.722656 119.21875 87.964844 119.972656 87.035156 119.972656 Z M 87.035156 119.972656 " fill-opacity="1" fill-rule="nonzero"/><path fill="#000000" d="M 77.601562 86.558594 C 75.5625 86.558594 73.898438 88.21875 73.898438 90.261719 C 73.898438 92.304688 75.5625 93.964844 77.601562 93.964844 C 79.644531 93.964844 81.304688 92.304688 81.304688 90.261719 C 81.304688 88.21875 79.644531 86.558594 77.601562 86.558594 Z M 77.601562 91.941406 C 76.675781 91.941406 75.921875 91.1875 75.921875 90.261719 C 75.921875 89.332031 76.675781 88.582031 77.601562 88.582031 C 78.527344 88.582031 79.28125 89.335938 79.28125 90.261719 C 79.28125 91.1875 78.527344 91.941406 77.601562 91.941406 Z M 77.601562 91.941406 " fill-opacity="1" fill-rule="nonzero"/><path fill="#000000" d="M 77.601562 95.898438 C 75.5625 95.898438 73.898438 97.558594 73.898438 99.601562 C 73.898438 101.644531 75.5625 103.304688 77.601562 103.304688 C 79.644531 103.304688 81.304688 101.644531 81.304688 99.601562 C 81.304688 97.558594 79.644531 95.898438 77.601562 95.898438 Z M 77.601562 101.28125 C 76.675781 101.28125 75.921875 100.527344 75.921875 99.601562 C 75.921875 98.675781 76.675781 97.921875 77.601562 97.921875 C 78.527344 97.921875 79.28125 98.675781 79.28125 99.601562 C 79.28125 100.527344 78.527344 101.28125 77.601562 101.28125 Z M 77.601562 101.28125 " fill-opacity="1" fill-rule="nonzero"/><path fill="#000000" d="M 77.601562 105.238281 C 75.5625 105.238281 73.898438 106.902344 73.898438 108.949219 C 73.898438 110.992188 75.5625 112.65625 77.601562 112.65625 C 79.644531 112.65625 81.304688 110.992188 81.304688 108.949219 C 81.304688 106.902344 79.644531 105.238281 77.601562 105.238281 Z M 77.601562 110.632812 C 76.675781 110.632812 75.921875 109.878906 75.921875 108.953125 C 75.921875 108.019531 76.675781 107.261719 77.601562 107.261719 C 78.527344 107.261719 79.28125 108.019531 79.28125 108.953125 C 79.28125 109.878906 78.527344 110.632812 77.601562 110.632812 Z M 77.601562 110.632812 " fill-opacity="1" fill-rule="nonzero"/><path fill="#000000" d="M 77.601562 114.589844 C 75.5625 114.589844 73.898438 116.25 73.898438 118.292969 C 73.898438 120.332031 75.5625 121.996094 77.601562 121.996094 C 79.644531 121.996094 81.304688 120.332031 81.304688 118.292969 C 81.304688 116.25 79.644531 114.589844 77.601562 114.589844 Z M 77.601562 119.972656 C 76.675781 119.972656 75.921875 119.21875 75.921875 118.292969 C 75.921875 117.367188 76.675781 116.613281 77.601562 116.613281 C 78.527344 116.613281 79.28125 117.367188 79.28125 118.292969 C 79.28125 119.21875 78.527344 119.972656 77.601562 119.972656 Z M 77.601562 119.972656 " fill-opacity="1" fill-rule="nonzero"/><path fill="#000000" d="M 96.476562 86.558594 C 94.433594 86.558594 92.769531 88.21875 92.769531 90.261719 C 92.769531 92.304688 94.433594 93.964844 96.476562 93.964844 C 98.515625 93.964844 100.179688 92.304688 100.179688 90.261719 C 100.179688 88.21875 98.515625 86.558594 96.476562 86.558594 Z M 96.476562 91.941406 C 95.550781 91.941406 94.796875 91.1875 94.796875 90.261719 C 94.796875 89.332031 95.550781 88.582031 96.476562 88.582031 C 97.402344 88.582031 98.15625 89.335938 98.15625 90.261719 C 98.15625 91.1875 97.402344 91.941406 96.476562 91.941406 Z M 96.476562 91.941406 " fill-opacity="1" fill-rule="nonzero"/><path fill="#000000" d="M 96.476562 95.898438 C 94.433594 95.898438 92.769531 97.558594 92.769531 99.601562 C 92.769531 101.644531 94.433594 103.304688 96.476562 103.304688 C 98.515625 103.304688 100.179688 101.644531 100.179688 99.601562 C 100.179688 97.558594 98.515625 95.898438 96.476562 95.898438 Z M 96.476562 101.28125 C 95.550781 101.28125 94.796875 100.527344 94.796875 99.601562 C 94.796875 98.675781 95.550781 97.921875 96.476562 97.921875 C 97.402344 97.921875 98.15625 98.675781 98.15625 99.601562 C 98.15625 100.527344 97.402344 101.28125 96.476562 101.28125 Z M 96.476562 101.28125 " fill-opacity="1" fill-rule="nonzero"/><path fill="#000000" d="M 96.476562 105.238281 C 94.433594 105.238281 92.769531 106.902344 92.769531 108.949219 C 92.769531 110.992188 94.433594 112.65625 96.476562 112.65625 C 98.515625 112.65625 100.179688 110.992188 100.179688 108.949219 C 100.179688 106.902344 98.515625 105.238281 96.476562 105.238281 Z M 96.476562 110.632812 C 95.550781 110.632812 94.796875 109.878906 94.796875 108.953125 C 94.796875 108.019531 95.550781 107.261719 96.476562 107.261719 C 97.402344 107.261719 98.15625 108.019531 98.15625 108.953125 C 98.15625 109.878906 97.402344 110.632812 96.476562 110.632812 Z M 96.476562 110.632812 " fill-opacity="1" fill-rule="nonzero"/><path fill="#000000" d="M 96.476562 114.589844 C 94.433594 114.589844 92.769531 116.25 92.769531 118.292969 C 92.769531 120.332031 94.433594 121.996094 96.476562 121.996094 C 98.515625 121.996094 100.179688 120.332031 100.179688 118.292969 C 100.179688 116.25 98.515625 114.589844 96.476562 114.589844 Z M 96.476562 119.972656 C 95.550781 119.972656 94.796875 119.21875 94.796875 118.292969 C 94.796875 117.367188 95.550781 116.613281 96.476562 116.613281 C 97.402344 116.613281 98.15625 117.367188 98.15625 118.292969 C 98.15625 119.21875 97.402344 119.972656 96.476562 119.972656 Z M 96.476562 119.972656 " fill-opacity="1" fill-rule="nonzero"/><g clip-path="url(#313530e14e)"><path fill="#000000" d="M 122.421875 102.625 C 121.863281 102.625 121.410156 103.078125 121.410156 103.636719 L 121.410156 117.703125 C 121.410156 118.636719 120.722656 119.410156 119.828125 119.5625 L 119.828125 72.785156 C 119.828125 72.726562 119.804688 72.671875 119.796875 72.613281 C 119.785156 72.550781 119.789062 72.492188 119.765625 72.429688 L 117.945312 67.574219 C 117.613281 66.695312 116.929688 66.046875 116.085938 65.757812 L 116.085938 62.433594 C 116.085938 61.875 115.632812 61.421875 115.074219 61.421875 C 114.515625 61.421875 114.0625 61.875 114.0625 62.433594 L 114.0625 65.753906 C 113.21875 66.046875 112.535156 66.695312 112.203125 67.570312 L 110.375 72.429688 C 110.351562 72.488281 110.355469 72.546875 110.34375 72.605469 C 110.332031 72.667969 110.308594 72.722656 110.308594 72.785156 L 110.308594 120.609375 C 110.308594 121.167969 110.761719 121.621094 111.320312 121.621094 L 111.925781 121.621094 L 111.925781 124.300781 C 111.925781 125.15625 112.257812 125.949219 112.839844 126.515625 C 113.425781 127.117188 114.222656 127.449219 115.074219 127.449219 C 116.808594 127.449219 118.222656 126.035156 118.222656 124.300781 L 118.222656 121.621094 L 119.507812 121.621094 C 121.671875 121.621094 123.433594 119.863281 123.433594 117.703125 L 123.433594 103.640625 C 123.433594 103.078125 122.980469 102.625 122.421875 102.625 Z M 117.804688 77.835938 L 117.804688 94.023438 L 112.332031 94.023438 L 112.332031 77.835938 Z M 117.804688 96.050781 L 117.804688 115.8125 L 112.332031 115.8125 L 112.332031 96.050781 Z M 114.097656 68.285156 C 114.335938 67.652344 114.90625 67.605469 115.074219 67.605469 C 115.242188 67.605469 115.8125 67.652344 116.046875 68.285156 L 117.355469 71.773438 L 112.78125 71.773438 Z M 116.195312 124.300781 C 116.195312 124.921875 115.691406 125.425781 115.074219 125.425781 C 114.769531 125.425781 114.492188 125.308594 114.273438 125.085938 C 114.066406 124.882812 113.949219 124.605469 113.949219 124.300781 L 113.949219 121.621094 L 116.195312 121.621094 Z M 116.195312 124.300781 " fill-opacity="1" fill-rule="nonzero"/></g><path fill="#000000" d="M 71.875 32.449219 C 71.316406 32.449219 70.863281 32.902344 70.863281 33.460938 L 70.863281 59.285156 C 70.863281 59.84375 71.316406 60.296875 71.875 60.296875 L 78.757812 60.296875 C 79.316406 60.296875 79.769531 59.84375 79.769531 59.285156 L 79.769531 33.460938 C 79.769531 32.902344 79.316406 32.449219 78.757812 32.449219 Z M 77.746094 58.273438 L 72.886719 58.273438 L 72.886719 34.472656 L 77.746094 34.472656 Z M 77.746094 58.273438 " fill-opacity="1" fill-rule="nonzero"/><path fill="#000000" d="M 83.804688 22.636719 C 83.246094 22.636719 82.792969 23.089844 82.792969 23.648438 L 82.792969 59.289062 C 82.792969 59.847656 83.246094 60.300781 83.804688 60.300781 L 90.6875 60.300781 C 91.246094 60.300781 91.699219 59.847656 91.699219 59.289062 L 91.699219 23.648438 C 91.699219 23.089844 91.246094 22.636719 90.6875 22.636719 Z M 89.675781 58.273438 L 84.816406 58.273438 L 84.816406 24.660156 L 89.675781 24.660156 Z M 89.675781 58.273438 " fill-opacity="1" fill-rule="nonzero"/><path fill="#000000" d="M 95.746094 38.683594 C 95.1875 38.683594 94.734375 39.136719 94.734375 39.695312 L 94.734375 59.285156 C 94.734375 59.84375 95.1875 60.296875 95.746094 60.296875 L 102.617188 60.296875 C 103.175781 60.296875 103.628906 59.84375 103.628906 59.285156 L 103.628906 39.695312 C 103.628906 39.136719 103.175781 38.683594 102.617188 38.683594 Z M 101.605469 58.273438 L 96.757812 58.273438 L 96.757812 40.707031 L 101.605469 40.707031 Z M 101.605469 58.273438 " fill-opacity="1" fill-rule="nonzero"/><path fill="#000000" d="M 115.570312 59.285156 L 115.570312 16.121094 C 115.570312 15.5625 115.117188 15.109375 114.558594 15.109375 L 107.675781 15.109375 C 107.117188 15.109375 106.664062 15.5625 106.664062 16.121094 L 106.664062 59.289062 C 106.664062 59.847656 107.117188 60.300781 107.675781 60.300781 L 114.558594 60.300781 C 115.117188 60.296875 115.570312 59.847656 115.570312 59.285156 Z M 113.546875 58.273438 L 108.6875 58.273438 L 108.6875 17.132812 L 113.546875 17.132812 Z M 113.546875 58.273438 " fill-opacity="1" fill-rule="nonzero"/><g clip-path="url(#2686e6ecfe)"><path fill="#000000" d="M 126.488281 8.882812 L 119.605469 8.882812 C 119.046875 8.882812 118.59375 9.335938 118.59375 9.894531 L 118.59375 59.285156 C 118.59375 59.84375 119.046875 60.296875 119.605469 60.296875 L 126.488281 60.296875 C 127.046875 60.296875 127.5 59.84375 127.5 59.285156 L 127.5 9.894531 C 127.5 9.335938 127.046875 8.882812 126.488281 8.882812 Z M 125.476562 58.273438 L 120.617188 58.273438 L 120.617188 10.90625 L 125.476562 10.90625 Z M 125.476562 58.273438 " fill-opacity="1" fill-rule="nonzero"/></g><path fill="#000000" d="M 92.328125 11.507812 C 92.859375 11.667969 93.289062 12.027344 93.535156 12.515625 C 94.21875 13.875 95.589844 14.722656 97.121094 14.722656 C 97.785156 14.722656 98.410156 14.574219 98.976562 14.277344 L 114.453125 6.230469 L 115.929688 8.882812 C 116.101562 9.1875 116.421875 9.386719 116.773438 9.402344 C 116.785156 9.402344 116.800781 9.402344 116.816406 9.402344 C 117.152344 9.402344 117.464844 9.234375 117.65625 8.957031 L 122.625 1.578125 C 122.835938 1.261719 122.851562 0.855469 122.667969 0.519531 C 122.484375 0.1875 122.121094 -0.0078125 121.746094 0.00390625 L 112.859375 0.347656 C 112.507812 0.359375 112.191406 0.554688 112.019531 0.863281 C 111.847656 1.167969 111.84375 1.542969 112.015625 1.851562 L 113.472656 4.460938 L 98.042969 12.484375 C 97.765625 12.628906 97.457031 12.703125 97.125 12.703125 C 96.367188 12.703125 95.683594 12.285156 95.34375 11.605469 C 94.839844 10.613281 93.976562 9.894531 92.914062 9.574219 C 91.855469 9.253906 90.746094 9.378906 89.789062 9.917969 L 65.261719 23.6875 C 64.773438 23.964844 64.601562 24.578125 64.875 25.066406 C 65.058594 25.398438 65.402344 25.582031 65.757812 25.582031 C 65.925781 25.582031 66.09375 25.542969 66.253906 25.453125 L 90.78125 11.675781 C 91.253906 11.410156 91.800781 11.347656 92.328125 11.507812 Z M 92.328125 11.507812 " fill-opacity="1" fill-rule="nonzero"/></svg>