<svg xmlns="http://www.w3.org/2000/svg" xmlns:xlink="http://www.w3.org/1999/xlink" width="225" zoomAndPan="magnify" viewBox="0 0 168.75 56.249996" height="75" preserveAspectRatio="xMidYMid meet" version="1.0"><path fill="#aaecfa" d="M 45.640625 29.03125 L 45.640625 31.964844 L 44.097656 31.964844 L 44.097656 23.960938 L 46.832031 23.960938 C 47.273438 23.960938 47.664062 24.027344 48.011719 24.15625 C 48.367188 24.28125 48.667969 24.457031 48.917969 24.679688 C 49.164062 24.902344 49.351562 25.171875 49.484375 25.488281 C 49.613281 25.808594 49.679688 26.15625 49.679688 26.542969 C 49.679688 26.898438 49.613281 27.230469 49.484375 27.539062 C 49.351562 27.839844 49.164062 28.105469 48.917969 28.328125 C 48.667969 28.542969 48.367188 28.71875 48.011719 28.847656 C 47.664062 28.972656 47.273438 29.03125 46.832031 29.03125 Z M 45.640625 27.769531 L 46.832031 27.769531 C 47.054688 27.769531 47.242188 27.742188 47.398438 27.679688 C 47.5625 27.609375 47.695312 27.523438 47.804688 27.410156 C 47.910156 27.296875 47.992188 27.164062 48.046875 27.019531 C 48.101562 26.863281 48.128906 26.710938 48.128906 26.554688 C 48.128906 26.363281 48.101562 26.191406 48.046875 26.035156 C 47.992188 25.871094 47.910156 25.730469 47.804688 25.605469 C 47.695312 25.484375 47.5625 25.386719 47.398438 25.316406 C 47.242188 25.246094 47.054688 25.210938 46.832031 25.210938 L 45.640625 25.210938 Z M 45.640625 27.769531 " fill-opacity="1" fill-rule="nonzero"/><path fill="#aaecfa" d="M 53.585938 28.976562 L 52.414062 28.976562 L 52.414062 31.964844 L 50.863281 31.964844 L 50.863281 23.960938 L 53.550781 23.960938 C 53.988281 23.960938 54.386719 24.015625 54.742188 24.121094 C 55.105469 24.222656 55.414062 24.375 55.667969 24.574219 C 55.925781 24.777344 56.121094 25.027344 56.261719 25.328125 C 56.398438 25.628906 56.46875 25.976562 56.46875 26.371094 C 56.46875 26.65625 56.433594 26.914062 56.363281 27.144531 C 56.296875 27.375 56.195312 27.585938 56.0625 27.769531 C 55.9375 27.949219 55.789062 28.105469 55.613281 28.246094 C 55.433594 28.378906 55.234375 28.496094 55.019531 28.59375 L 56.746094 31.894531 L 56.746094 31.964844 L 55.089844 31.964844 Z M 52.414062 27.722656 L 53.550781 27.722656 C 53.988281 27.722656 54.324219 27.613281 54.558594 27.386719 C 54.796875 27.164062 54.917969 26.863281 54.917969 26.472656 C 54.917969 26.078125 54.800781 25.773438 54.570312 25.546875 C 54.335938 25.324219 53.996094 25.210938 53.550781 25.210938 L 52.414062 25.210938 Z M 52.414062 27.722656 " fill-opacity="1" fill-rule="nonzero"/><path fill="#aaecfa" d="M 58.082031 23.960938 L 62.703125 23.960938 L 62.703125 25.210938 L 61.136719 25.210938 L 61.136719 30.722656 L 62.703125 30.722656 L 62.703125 31.964844 L 58.082031 31.964844 L 58.082031 30.722656 L 59.597656 30.722656 L 59.597656 25.210938 L 58.082031 25.210938 Z M 58.082031 23.960938 " fill-opacity="1" fill-rule="nonzero"/><path fill="#aaecfa" d="M 70.164062 29.460938 C 70.140625 29.863281 70.050781 30.226562 69.894531 30.550781 C 69.75 30.867188 69.550781 31.140625 69.304688 31.371094 C 69.054688 31.597656 68.761719 31.773438 68.414062 31.894531 C 68.066406 32.015625 67.683594 32.078125 67.265625 32.078125 C 66.796875 32.078125 66.375 31.992188 66.003906 31.824219 C 65.640625 31.648438 65.335938 31.40625 65.089844 31.09375 C 64.839844 30.777344 64.648438 30.398438 64.511719 29.960938 C 64.378906 29.519531 64.3125 29.03125 64.3125 28.5 L 64.3125 27.421875 C 64.3125 26.898438 64.382812 26.414062 64.523438 25.976562 C 64.667969 25.535156 64.871094 25.160156 65.125 24.839844 C 65.378906 24.523438 65.6875 24.28125 66.050781 24.109375 C 66.414062 23.933594 66.820312 23.84375 67.277344 23.84375 C 67.71875 23.84375 68.105469 23.90625 68.449219 24.03125 C 68.796875 24.152344 69.089844 24.332031 69.328125 24.5625 C 69.574219 24.792969 69.769531 25.078125 69.90625 25.40625 C 70.046875 25.742188 70.128906 26.121094 70.164062 26.542969 L 68.632812 26.542969 C 68.617188 26.304688 68.578125 26.097656 68.519531 25.917969 C 68.460938 25.730469 68.382812 25.582031 68.273438 25.464844 C 68.164062 25.34375 68.03125 25.253906 67.871094 25.199219 C 67.707031 25.140625 67.511719 25.105469 67.277344 25.105469 C 67.039062 25.105469 66.828125 25.160156 66.652344 25.257812 C 66.480469 25.359375 66.339844 25.507812 66.226562 25.710938 C 66.109375 25.910156 66.023438 26.15625 65.96875 26.4375 C 65.914062 26.726562 65.890625 27.050781 65.890625 27.410156 L 65.890625 28.5 C 65.890625 29.296875 65.996094 29.882812 66.214844 30.261719 C 66.4375 30.632812 66.785156 30.816406 67.265625 30.816406 C 67.675781 30.816406 67.996094 30.710938 68.226562 30.503906 C 68.460938 30.289062 68.589844 29.941406 68.621094 29.460938 Z M 70.164062 29.460938 " fill-opacity="1" fill-rule="nonzero"/><path fill="#aaecfa" d="M 76.394531 28.453125 L 73.117188 28.453125 L 73.117188 30.710938 L 76.949219 30.710938 L 76.949219 31.964844 L 71.566406 31.964844 L 71.566406 23.960938 L 76.941406 23.960938 L 76.941406 25.222656 L 73.117188 25.222656 L 73.117188 27.238281 L 76.394531 27.238281 Z M 76.394531 28.453125 " fill-opacity="1" fill-rule="nonzero"/><path fill="#5da4f0" d="M 85.214844 23.960938 L 85.96875 26.972656 L 86.835938 23.960938 L 88.757812 23.960938 L 88.757812 31.964844 L 87.332031 31.964844 L 87.332031 29.589844 L 87.402344 25.847656 L 86.347656 29.324219 L 85.585938 29.324219 L 84.648438 26 L 84.714844 29.589844 L 84.714844 31.964844 L 83.292969 31.964844 L 83.292969 23.960938 Z M 85.214844 23.960938 " fill-opacity="1" fill-rule="nonzero"/><path fill="#5da4f0" d="M 95.769531 28.546875 C 95.769531 29.066406 95.699219 29.539062 95.558594 29.972656 C 95.425781 30.40625 95.234375 30.777344 94.980469 31.082031 C 94.726562 31.394531 94.414062 31.636719 94.042969 31.8125 C 93.671875 31.980469 93.257812 32.066406 92.804688 32.066406 C 92.339844 32.066406 91.925781 31.980469 91.5625 31.8125 C 91.207031 31.636719 90.90625 31.394531 90.660156 31.082031 C 90.410156 30.765625 90.222656 30.398438 90.09375 29.972656 C 89.96875 29.539062 89.90625 29.066406 89.90625 28.546875 L 89.90625 27.386719 C 89.90625 26.875 89.96875 26.398438 90.09375 25.964844 C 90.222656 25.53125 90.410156 25.160156 90.660156 24.851562 C 90.90625 24.535156 91.207031 24.289062 91.5625 24.109375 C 91.917969 23.933594 92.328125 23.84375 92.792969 23.84375 C 93.253906 23.84375 93.671875 23.933594 94.042969 24.109375 C 94.414062 24.289062 94.726562 24.535156 94.980469 24.851562 C 95.234375 25.160156 95.425781 25.53125 95.558594 25.964844 C 95.699219 26.398438 95.769531 26.875 95.769531 27.386719 Z M 94.203125 27.375 C 94.203125 27.046875 94.175781 26.746094 94.125 26.472656 C 94.066406 26.195312 93.984375 25.960938 93.867188 25.765625 C 93.757812 25.566406 93.617188 25.414062 93.441406 25.304688 C 93.261719 25.1875 93.046875 25.128906 92.792969 25.128906 C 92.542969 25.128906 92.332031 25.1875 92.164062 25.304688 C 91.996094 25.414062 91.859375 25.566406 91.761719 25.765625 C 91.660156 25.960938 91.585938 26.195312 91.539062 26.472656 C 91.492188 26.746094 91.472656 27.046875 91.472656 27.375 L 91.472656 28.546875 C 91.472656 28.871094 91.492188 29.171875 91.539062 29.449219 C 91.585938 29.722656 91.660156 29.957031 91.761719 30.15625 C 91.859375 30.359375 91.996094 30.515625 92.164062 30.632812 C 92.332031 30.746094 92.546875 30.804688 92.804688 30.804688 C 93.050781 30.804688 93.261719 30.746094 93.441406 30.632812 C 93.617188 30.515625 93.757812 30.363281 93.867188 30.167969 C 93.984375 29.96875 94.066406 29.734375 94.125 29.460938 C 94.175781 29.183594 94.203125 28.878906 94.203125 28.546875 Z M 94.203125 27.375 " fill-opacity="1" fill-rule="nonzero"/><path fill="#5da4f0" d="M 102.335938 31.964844 L 100.796875 31.964844 L 98.570312 26.796875 L 98.570312 31.964844 L 97.007812 31.964844 L 97.007812 23.960938 L 98.570312 23.960938 L 100.773438 29.101562 L 100.785156 23.960938 L 102.335938 23.960938 Z M 102.335938 31.964844 " fill-opacity="1" fill-rule="nonzero"/><path fill="#5da4f0" d="M 104.273438 23.960938 L 108.894531 23.960938 L 108.894531 25.210938 L 107.328125 25.210938 L 107.328125 30.722656 L 108.894531 30.722656 L 108.894531 31.964844 L 104.273438 31.964844 L 104.273438 30.722656 L 105.789062 30.722656 L 105.789062 25.210938 L 104.273438 25.210938 Z M 104.273438 23.960938 " fill-opacity="1" fill-rule="nonzero"/><path fill="#5da4f0" d="M 116.679688 25.222656 L 114.210938 25.222656 L 114.210938 31.964844 L 112.660156 31.964844 L 112.660156 25.222656 L 110.226562 25.222656 L 110.226562 23.960938 L 116.679688 23.960938 Z M 116.679688 25.222656 " fill-opacity="1" fill-rule="nonzero"/><path fill="#5da4f0" d="M 123.246094 28.546875 C 123.246094 29.066406 123.175781 29.539062 123.039062 29.972656 C 122.90625 30.40625 122.714844 30.777344 122.457031 31.082031 C 122.203125 31.394531 121.890625 31.636719 121.519531 31.8125 C 121.148438 31.980469 120.734375 32.066406 120.28125 32.066406 C 119.816406 32.066406 119.402344 31.980469 119.042969 31.8125 C 118.6875 31.636719 118.386719 31.394531 118.140625 31.082031 C 117.890625 30.765625 117.703125 30.398438 117.570312 29.972656 C 117.445312 29.539062 117.386719 29.066406 117.386719 28.546875 L 117.386719 27.386719 C 117.386719 26.875 117.445312 26.398438 117.570312 25.964844 C 117.703125 25.53125 117.890625 25.160156 118.140625 24.851562 C 118.386719 24.535156 118.6875 24.289062 119.042969 24.109375 C 119.394531 23.933594 119.808594 23.84375 120.269531 23.84375 C 120.734375 23.84375 121.148438 23.933594 121.519531 24.109375 C 121.890625 24.289062 122.203125 24.535156 122.457031 24.851562 C 122.714844 25.160156 122.90625 25.53125 123.039062 25.964844 C 123.175781 26.398438 123.246094 26.875 123.246094 27.386719 Z M 121.683594 27.375 C 121.683594 27.046875 121.652344 26.746094 121.601562 26.472656 C 121.546875 26.195312 121.460938 25.960938 121.347656 25.765625 C 121.238281 25.566406 121.09375 25.414062 120.917969 25.304688 C 120.738281 25.1875 120.523438 25.128906 120.269531 25.128906 C 120.019531 25.128906 119.8125 25.1875 119.644531 25.304688 C 119.472656 25.414062 119.335938 25.566406 119.238281 25.765625 C 119.136719 25.960938 119.066406 26.195312 119.019531 26.472656 C 118.972656 26.746094 118.949219 27.046875 118.949219 27.375 L 118.949219 28.546875 C 118.949219 28.871094 118.972656 29.171875 119.019531 29.449219 C 119.066406 29.722656 119.136719 29.957031 119.238281 30.15625 C 119.335938 30.359375 119.472656 30.515625 119.644531 30.632812 C 119.8125 30.746094 120.027344 30.804688 120.28125 30.804688 C 120.527344 30.804688 120.738281 30.746094 120.917969 30.632812 C 121.09375 30.515625 121.238281 30.363281 121.347656 30.167969 C 121.460938 29.96875 121.546875 29.734375 121.601562 29.460938 C 121.652344 29.183594 121.683594 28.878906 121.683594 28.546875 Z M 121.683594 27.375 " fill-opacity="1" fill-rule="nonzero"/><path fill="#5da4f0" d="M 127.253906 28.976562 L 126.085938 28.976562 L 126.085938 31.964844 L 124.535156 31.964844 L 124.535156 23.960938 L 127.222656 23.960938 C 127.660156 23.960938 128.058594 24.015625 128.414062 24.121094 C 128.777344 24.222656 129.085938 24.375 129.339844 24.574219 C 129.59375 24.777344 129.792969 25.027344 129.929688 25.328125 C 130.070312 25.628906 130.140625 25.976562 130.140625 26.371094 C 130.140625 26.65625 130.105469 26.914062 130.035156 27.144531 C 129.964844 27.375 129.863281 27.585938 129.734375 27.769531 C 129.609375 27.949219 129.457031 28.105469 129.28125 28.246094 C 129.101562 28.378906 128.90625 28.496094 128.691406 28.59375 L 130.417969 31.894531 L 130.417969 31.964844 L 128.761719 31.964844 Z M 126.085938 27.722656 L 127.222656 27.722656 C 127.660156 27.722656 127.996094 27.613281 128.226562 27.386719 C 128.464844 27.164062 128.585938 26.863281 128.585938 26.472656 C 128.585938 26.078125 128.472656 25.773438 128.238281 25.546875 C 128.007812 25.324219 127.667969 25.210938 127.222656 25.210938 L 126.085938 25.210938 Z M 126.085938 27.722656 " fill-opacity="1" fill-rule="nonzero"/></svg>