<svg xmlns="http://www.w3.org/2000/svg" xmlns:xlink="http://www.w3.org/1999/xlink" width="300" zoomAndPan="magnify" viewBox="0 0 224.87999 74.999997" height="100" preserveAspectRatio="xMidYMid meet" version="1.0"><defs><g/></defs><g fill="#99d3df" fill-opacity="1"><g transform="translate(56.992746, 43.121995)"><g><path d="M 3.1875 -3.953125 L 3.1875 0 L 1.109375 0 L 1.109375 -10.796875 L 4.796875 -10.796875 C 5.390625 -10.796875 5.921875 -10.707031 6.390625 -10.53125 C 6.867188 -10.363281 7.273438 -10.128906 7.609375 -9.828125 C 7.941406 -9.523438 8.195312 -9.160156 8.375 -8.734375 C 8.550781 -8.304688 8.640625 -7.832031 8.640625 -7.3125 C 8.640625 -6.832031 8.550781 -6.382812 8.375 -5.96875 C 8.195312 -5.5625 7.941406 -5.207031 7.609375 -4.90625 C 7.273438 -4.613281 6.867188 -4.378906 6.390625 -4.203125 C 5.921875 -4.035156 5.390625 -3.953125 4.796875 -3.953125 Z M 3.1875 -5.65625 L 4.796875 -5.65625 C 5.097656 -5.65625 5.351562 -5.695312 5.5625 -5.78125 C 5.78125 -5.875 5.960938 -5.992188 6.109375 -6.140625 C 6.253906 -6.296875 6.363281 -6.472656 6.4375 -6.671875 C 6.507812 -6.878906 6.546875 -7.085938 6.546875 -7.296875 C 6.546875 -7.554688 6.507812 -7.789062 6.4375 -8 C 6.363281 -8.21875 6.253906 -8.410156 6.109375 -8.578125 C 5.960938 -8.742188 5.78125 -8.875 5.5625 -8.96875 C 5.351562 -9.0625 5.097656 -9.109375 4.796875 -9.109375 L 3.1875 -9.109375 Z M 3.1875 -5.65625 "/></g></g></g><g fill="#99d3df" fill-opacity="1"><g transform="translate(66.260891, 43.121995)"><g><path d="M 4.640625 -4.03125 L 3.0625 -4.03125 L 3.0625 0 L 0.96875 0 L 0.96875 -10.796875 L 4.59375 -10.796875 C 5.1875 -10.796875 5.722656 -10.722656 6.203125 -10.578125 C 6.691406 -10.441406 7.109375 -10.238281 7.453125 -9.96875 C 7.796875 -9.695312 8.0625 -9.359375 8.25 -8.953125 C 8.4375 -8.546875 8.53125 -8.078125 8.53125 -7.546875 C 8.53125 -7.160156 8.484375 -6.8125 8.390625 -6.5 C 8.296875 -6.1875 8.160156 -5.90625 7.984375 -5.65625 C 7.816406 -5.414062 7.613281 -5.203125 7.375 -5.015625 C 7.132812 -4.835938 6.867188 -4.679688 6.578125 -4.546875 L 8.90625 -0.09375 L 8.90625 0 L 6.671875 0 Z M 3.0625 -5.71875 L 4.59375 -5.71875 C 5.1875 -5.71875 5.640625 -5.867188 5.953125 -6.171875 C 6.273438 -6.472656 6.4375 -6.882812 6.4375 -7.40625 C 6.4375 -7.9375 6.28125 -8.351562 5.96875 -8.65625 C 5.65625 -8.957031 5.195312 -9.109375 4.59375 -9.109375 L 3.0625 -9.109375 Z M 3.0625 -5.71875 "/></g></g></g><g fill="#99d3df" fill-opacity="1"><g transform="translate(75.529036, 43.121995)"><g><path d="M 1.4375 -10.796875 L 7.671875 -10.796875 L 7.671875 -9.109375 L 5.5625 -9.109375 L 5.5625 -1.671875 L 7.671875 -1.671875 L 7.671875 0 L 1.4375 0 L 1.4375 -1.671875 L 3.484375 -1.671875 L 3.484375 -9.109375 L 1.4375 -9.109375 Z M 1.4375 -10.796875 "/></g></g></g><g fill="#99d3df" fill-opacity="1"><g transform="translate(84.797181, 43.121995)"><g><path d="M 8.46875 -3.375 C 8.4375 -2.832031 8.316406 -2.34375 8.109375 -1.90625 C 7.910156 -1.476562 7.644531 -1.109375 7.3125 -0.796875 C 6.976562 -0.492188 6.578125 -0.257812 6.109375 -0.09375 C 5.640625 0.0703125 5.125 0.15625 4.5625 0.15625 C 3.925781 0.15625 3.359375 0.0390625 2.859375 -0.1875 C 2.367188 -0.425781 1.957031 -0.753906 1.625 -1.171875 C 1.289062 -1.597656 1.03125 -2.109375 0.84375 -2.703125 C 0.664062 -3.296875 0.578125 -3.953125 0.578125 -4.671875 L 0.578125 -6.125 C 0.578125 -6.832031 0.671875 -7.484375 0.859375 -8.078125 C 1.054688 -8.671875 1.328125 -9.179688 1.671875 -9.609375 C 2.015625 -10.035156 2.429688 -10.363281 2.921875 -10.59375 C 3.410156 -10.832031 3.960938 -10.953125 4.578125 -10.953125 C 5.171875 -10.953125 5.695312 -10.867188 6.15625 -10.703125 C 6.625 -10.535156 7.019531 -10.296875 7.34375 -9.984375 C 7.675781 -9.671875 7.9375 -9.289062 8.125 -8.84375 C 8.3125 -8.394531 8.425781 -7.882812 8.46875 -7.3125 L 6.40625 -7.3125 C 6.382812 -7.632812 6.332031 -7.914062 6.25 -8.15625 C 6.175781 -8.40625 6.066406 -8.609375 5.921875 -8.765625 C 5.773438 -8.929688 5.59375 -9.050781 5.375 -9.125 C 5.15625 -9.207031 4.890625 -9.25 4.578125 -9.25 C 4.253906 -9.25 3.972656 -9.179688 3.734375 -9.046875 C 3.503906 -8.910156 3.3125 -8.707031 3.15625 -8.4375 C 3 -8.164062 2.882812 -7.835938 2.8125 -7.453125 C 2.738281 -7.066406 2.703125 -6.628906 2.703125 -6.140625 L 2.703125 -4.671875 C 2.703125 -3.597656 2.847656 -2.804688 3.140625 -2.296875 C 3.441406 -1.796875 3.914062 -1.546875 4.5625 -1.546875 C 5.113281 -1.546875 5.546875 -1.6875 5.859375 -1.96875 C 6.171875 -2.257812 6.347656 -2.726562 6.390625 -3.375 Z M 8.46875 -3.375 "/></g></g></g><g fill="#99d3df" fill-opacity="1"><g transform="translate(94.065325, 43.121995)"><g><path d="M 7.609375 -4.734375 L 3.1875 -4.734375 L 3.1875 -1.6875 L 8.359375 -1.6875 L 8.359375 0 L 1.09375 0 L 1.09375 -10.796875 L 8.34375 -10.796875 L 8.34375 -9.09375 L 3.1875 -9.09375 L 3.1875 -6.375 L 7.609375 -6.375 Z M 7.609375 -4.734375 "/></g></g></g><g fill="#99d3df" fill-opacity="1"><g transform="translate(103.327392, 43.121995)"><g/></g></g><g fill="#274463" fill-opacity="1"><g transform="translate(110.041271, 43.121995)"><g><path d="M 3.53125 -10.796875 L 4.546875 -6.734375 L 5.71875 -10.796875 L 8.3125 -10.796875 L 8.3125 0 L 6.390625 0 L 6.390625 -3.203125 L 6.484375 -8.25 L 5.0625 -3.5625 L 4.03125 -3.5625 L 2.765625 -8.046875 L 2.859375 -3.203125 L 2.859375 0 L 0.9375 0 L 0.9375 -10.796875 Z M 3.53125 -10.796875 "/></g></g></g><g fill="#274463" fill-opacity="1"><g transform="translate(119.309415, 43.121995)"><g><path d="M 8.5 -4.609375 C 8.5 -3.910156 8.40625 -3.269531 8.21875 -2.6875 C 8.039062 -2.101562 7.78125 -1.601562 7.4375 -1.1875 C 7.09375 -0.769531 6.671875 -0.441406 6.171875 -0.203125 C 5.671875 0.0234375 5.113281 0.140625 4.5 0.140625 C 3.875 0.140625 3.316406 0.0234375 2.828125 -0.203125 C 2.347656 -0.441406 1.941406 -0.769531 1.609375 -1.1875 C 1.273438 -1.613281 1.019531 -2.113281 0.84375 -2.6875 C 0.675781 -3.269531 0.59375 -3.910156 0.59375 -4.609375 L 0.59375 -6.171875 C 0.59375 -6.867188 0.675781 -7.507812 0.84375 -8.09375 C 1.019531 -8.675781 1.273438 -9.175781 1.609375 -9.59375 C 1.941406 -10.019531 2.347656 -10.351562 2.828125 -10.59375 C 3.304688 -10.832031 3.859375 -10.953125 4.484375 -10.953125 C 5.109375 -10.953125 5.671875 -10.832031 6.171875 -10.59375 C 6.671875 -10.351562 7.09375 -10.019531 7.4375 -9.59375 C 7.78125 -9.175781 8.039062 -8.675781 8.21875 -8.09375 C 8.40625 -7.507812 8.5 -6.867188 8.5 -6.171875 Z M 6.390625 -6.1875 C 6.390625 -6.632812 6.351562 -7.039062 6.28125 -7.40625 C 6.207031 -7.78125 6.09375 -8.097656 5.9375 -8.359375 C 5.789062 -8.628906 5.597656 -8.835938 5.359375 -8.984375 C 5.117188 -9.140625 4.828125 -9.21875 4.484375 -9.21875 C 4.148438 -9.21875 3.867188 -9.140625 3.640625 -8.984375 C 3.410156 -8.835938 3.226562 -8.628906 3.09375 -8.359375 C 2.957031 -8.097656 2.859375 -7.78125 2.796875 -7.40625 C 2.734375 -7.039062 2.703125 -6.632812 2.703125 -6.1875 L 2.703125 -4.609375 C 2.703125 -4.171875 2.734375 -3.765625 2.796875 -3.390625 C 2.859375 -3.023438 2.957031 -2.707031 3.09375 -2.4375 C 3.226562 -2.164062 3.410156 -1.953125 3.640625 -1.796875 C 3.867188 -1.640625 4.15625 -1.5625 4.5 -1.5625 C 4.832031 -1.5625 5.117188 -1.640625 5.359375 -1.796875 C 5.597656 -1.953125 5.789062 -2.160156 5.9375 -2.421875 C 6.09375 -2.691406 6.207031 -3.007812 6.28125 -3.375 C 6.351562 -3.75 6.390625 -4.160156 6.390625 -4.609375 Z M 6.390625 -6.1875 "/></g></g></g><g fill="#274463" fill-opacity="1"><g transform="translate(128.57756, 43.121995)"><g><path d="M 8.09375 0 L 6.015625 0 L 3.015625 -6.96875 L 3.015625 0 L 0.90625 0 L 0.90625 -10.796875 L 3.015625 -10.796875 L 5.984375 -3.859375 L 6 -10.796875 L 8.09375 -10.796875 Z M 8.09375 0 "/></g></g></g><g fill="#274463" fill-opacity="1"><g transform="translate(137.845705, 43.121995)"><g><path d="M 1.4375 -10.796875 L 7.671875 -10.796875 L 7.671875 -9.109375 L 5.5625 -9.109375 L 5.5625 -1.671875 L 7.671875 -1.671875 L 7.671875 0 L 1.4375 0 L 1.4375 -1.671875 L 3.484375 -1.671875 L 3.484375 -9.109375 L 1.4375 -9.109375 Z M 1.4375 -10.796875 "/></g></g></g><g fill="#274463" fill-opacity="1"><g transform="translate(147.113849, 43.121995)"><g><path d="M 8.90625 -9.09375 L 5.578125 -9.09375 L 5.578125 0 L 3.484375 0 L 3.484375 -9.09375 L 0.203125 -9.09375 L 0.203125 -10.796875 L 8.90625 -10.796875 Z M 8.90625 -9.09375 "/></g></g></g><g fill="#274463" fill-opacity="1"><g transform="translate(156.381993, 43.121995)"><g><path d="M 8.5 -4.609375 C 8.5 -3.910156 8.40625 -3.269531 8.21875 -2.6875 C 8.039062 -2.101562 7.78125 -1.601562 7.4375 -1.1875 C 7.09375 -0.769531 6.671875 -0.441406 6.171875 -0.203125 C 5.671875 0.0234375 5.113281 0.140625 4.5 0.140625 C 3.875 0.140625 3.316406 0.0234375 2.828125 -0.203125 C 2.347656 -0.441406 1.941406 -0.769531 1.609375 -1.1875 C 1.273438 -1.613281 1.019531 -2.113281 0.84375 -2.6875 C 0.675781 -3.269531 0.59375 -3.910156 0.59375 -4.609375 L 0.59375 -6.171875 C 0.59375 -6.867188 0.675781 -7.507812 0.84375 -8.09375 C 1.019531 -8.675781 1.273438 -9.175781 1.609375 -9.59375 C 1.941406 -10.019531 2.347656 -10.351562 2.828125 -10.59375 C 3.304688 -10.832031 3.859375 -10.953125 4.484375 -10.953125 C 5.109375 -10.953125 5.671875 -10.832031 6.171875 -10.59375 C 6.671875 -10.351562 7.09375 -10.019531 7.4375 -9.59375 C 7.78125 -9.175781 8.039062 -8.675781 8.21875 -8.09375 C 8.40625 -7.507812 8.5 -6.867188 8.5 -6.171875 Z M 6.390625 -6.1875 C 6.390625 -6.632812 6.351562 -7.039062 6.28125 -7.40625 C 6.207031 -7.78125 6.09375 -8.097656 5.9375 -8.359375 C 5.789062 -8.628906 5.597656 -8.835938 5.359375 -8.984375 C 5.117188 -9.140625 4.828125 -9.21875 4.484375 -9.21875 C 4.148438 -9.21875 3.867188 -9.140625 3.640625 -8.984375 C 3.410156 -8.835938 3.226562 -8.628906 3.09375 -8.359375 C 2.957031 -8.097656 2.859375 -7.78125 2.796875 -7.40625 C 2.734375 -7.039062 2.703125 -6.632812 2.703125 -6.1875 L 2.703125 -4.609375 C 2.703125 -4.171875 2.734375 -3.765625 2.796875 -3.390625 C 2.859375 -3.023438 2.957031 -2.707031 3.09375 -2.4375 C 3.226562 -2.164062 3.410156 -1.953125 3.640625 -1.796875 C 3.867188 -1.640625 4.15625 -1.5625 4.5 -1.5625 C 4.832031 -1.5625 5.117188 -1.640625 5.359375 -1.796875 C 5.597656 -1.953125 5.789062 -2.160156 5.9375 -2.421875 C 6.09375 -2.691406 6.207031 -3.007812 6.28125 -3.375 C 6.351562 -3.75 6.390625 -4.160156 6.390625 -4.609375 Z M 6.390625 -6.1875 "/></g></g></g><g fill="#274463" fill-opacity="1"><g transform="translate(165.65014, 43.121995)"><g><path d="M 4.640625 -4.03125 L 3.0625 -4.03125 L 3.0625 0 L 0.96875 0 L 0.96875 -10.796875 L 4.59375 -10.796875 C 5.1875 -10.796875 5.722656 -10.722656 6.203125 -10.578125 C 6.691406 -10.441406 7.109375 -10.238281 7.453125 -9.96875 C 7.796875 -9.695312 8.0625 -9.359375 8.25 -8.953125 C 8.4375 -8.546875 8.53125 -8.078125 8.53125 -7.546875 C 8.53125 -7.160156 8.484375 -6.8125 8.390625 -6.5 C 8.296875 -6.1875 8.160156 -5.90625 7.984375 -5.65625 C 7.816406 -5.414062 7.613281 -5.203125 7.375 -5.015625 C 7.132812 -4.835938 6.867188 -4.679688 6.578125 -4.546875 L 8.90625 -0.09375 L 8.90625 0 L 6.671875 0 Z M 3.0625 -5.71875 L 4.59375 -5.71875 C 5.1875 -5.71875 5.640625 -5.867188 5.953125 -6.171875 C 6.273438 -6.472656 6.4375 -6.882812 6.4375 -7.40625 C 6.4375 -7.9375 6.28125 -8.351562 5.96875 -8.65625 C 5.65625 -8.957031 5.195312 -9.109375 4.59375 -9.109375 L 3.0625 -9.109375 Z M 3.0625 -5.71875 "/></g></g></g></svg>